<svg width="232" height="27" viewBox="0 0 232 27" fill="none" xmlns="http://www.w3.org/2000/svg">
<path d="M105.151 5.44741V0.897281H127.98V5.44741H119.47V27H113.661V5.44741H105.151Z" fill="#344054"/>
<path d="M131.739 27V0.897281H142.706C144.805 0.897281 146.596 1.24991 148.08 1.95515C149.573 2.65191 150.709 3.64181 151.487 4.92485C152.274 6.1994 152.667 7.69911 152.667 9.424C152.667 11.1574 152.269 12.6486 151.473 13.8977C150.677 15.1382 149.523 16.0899 148.012 16.7526C145.547 17.2018 145.233 17.2591 142.556 17.7468H137.616V13.3114H141.606C142.728 13.3114 143.66 13.1669 144.402 12.878C145.144 12.5891 145.696 12.1558 146.058 11.578C146.429 11.0002 146.614 10.2822 146.614 9.424C146.614 8.55731 146.429 7.82657 146.058 7.23178C145.696 6.63699 145.139 6.18665 144.388 5.88076C143.647 5.56637 142.71 5.40918 141.579 5.40918H137.616V27H131.739ZM148.012 16.7526L153.658 27H147.171L142.556 17.7468L148.012 16.7526Z" fill="#344054"/>
<path d="M161.612 27H155.314L164.91 0.897281H172.483L182.065 27H175.767L168.805 6.86216H168.588L161.612 27ZM165.166 16.7399H172.22L173.709 21.0479H163.673L165.166 16.7399Z" fill="#344054"/>
<path d="M195.264 27H185.41V0.897281H195.345C198.141 0.897281 200.548 1.41985 202.565 2.46497C204.583 3.5016 206.135 4.99282 207.221 6.93863C208.315 8.88444 208.863 11.2126 208.863 13.9231C208.863 16.6422 208.315 18.9789 207.221 20.9332C206.135 22.8875 204.574 24.3872 202.538 25.4323C200.512 26.4774 198.087 27 195.264 27ZM191.287 22.2714H195.019C196.757 22.2714 198.218 21.9825 199.403 21.4047C200.597 20.8184 201.493 19.9135 202.09 18.69C202.697 17.4579 203 15.869 203 13.9231C203 11.9943 202.697 10.4181 202.09 9.19458C201.493 7.97102 200.602 7.07034 199.417 6.49254C198.231 5.91475 196.77 5.62585 195.033 5.62585H191.287V22.2714Z" fill="#344054"/>
<path d="M213.216 27V0.897281H231.946V5.44741H219.093V11.6672H230.982V16.2173H219.093V22.4499H232V27H213.216Z" fill="#344054"/>
<path d="M0 26.4596V0.356873H18.7295V4.90701H5.87673V11.1268H17.7659V15.6769H5.87673V21.9095H18.7838V26.4596H0Z" fill="#0459FF"/>
<path d="M23.4017 26.4596V0.356873H29.2785V11.866H29.6449L39.6476 0.356873H46.6915L36.3767 12.0445L46.8137 26.4596H39.7833L32.1693 15.7279L29.2785 19.0417V26.4596H23.4017Z" fill="#0459FF"/>
<path d="M73.7272 13.4082C73.7272 16.2547 73.1527 18.6764 72.0036 20.6731C70.8635 22.6699 69.3072 24.1951 67.3347 25.2488C65.3713 26.2939 63.1636 26.8165 60.7115 26.8165C58.2414 26.8165 56.0246 26.2897 54.0612 25.236C52.0978 24.1824 50.546 22.6572 49.406 20.6604C48.2659 18.6636 47.6959 16.2462 47.6959 13.4082C47.6959 10.5617 48.2659 8.14011 49.406 6.14332C50.546 4.14653 52.0978 2.62557 54.0612 1.58044C56.0246 0.526813 58.2414 0 60.7115 0C63.1636 0 65.3713 0.526813 67.3347 1.58044C69.3072 2.62557 70.8635 4.14653 72.0036 6.14332C73.1527 8.14011 73.7272 10.5617 73.7272 13.4082ZM67.7691 13.4082C67.7691 11.5644 67.475 10.0094 66.8869 8.74339C66.3078 7.47734 65.4889 6.51718 64.4303 5.86292C63.3717 5.20865 62.1321 4.88152 60.7115 4.88152C59.291 4.88152 58.0514 5.20865 56.9928 5.86292C55.9341 6.51718 55.1108 7.47734 54.5226 8.74339C53.9436 10.0094 53.654 11.5644 53.654 13.4082C53.654 15.2521 53.9436 16.807 54.5226 18.0731C55.1108 19.3391 55.9341 20.2993 56.9928 20.9536C58.0514 21.6078 59.291 21.935 60.7115 21.935C62.1321 21.935 63.3717 21.6078 64.4303 20.9536C65.4889 20.2993 66.3078 19.3391 66.8869 18.0731C67.475 16.807 67.7691 15.2521 67.7691 13.4082Z" fill="#0459FF"/>
<path d="M101.33 0.356873V26.4596H96.2536L84.1608 10.0307H83.9572V26.4596H78.0805V0.356873H83.2379L95.2356 16.773H95.4799V0.356873H101.33Z" fill="#0459FF"/>
</svg>
