<svg width="56" height="56" viewBox="0 0 56 56" fill="none" xmlns="http://www.w3.org/2000/svg">
<path d="M6.41671 47.25H49.5834C51.8385 47.25 53.6667 45.4218 53.6667 43.1667V12.8333C53.6667 10.5782 51.8385 8.75 49.5834 8.75H6.41671C4.16154 8.75 2.33337 10.5782 2.33337 12.8333V43.1667C2.33337 45.4218 4.16154 47.25 6.41671 47.25Z" fill="#E0E0E0"/>
<path d="M30.3334 47.25H49.5834C51.8385 47.25 53.6667 45.4218 53.6667 43.1667V12.8333C53.6667 10.5782 51.8385 8.75 49.5834 8.75H6.41671C4.16154 8.75 2.33337 10.5782 2.33337 12.8333L30.3334 47.25Z" fill="#D9D9D9"/>
<path d="M7.86914 47.25H49.5833C51.8385 47.25 53.6666 45.4219 53.6666 43.1667V13.4167L7.86914 47.25Z" fill="#EEEEEE"/>
<path d="M30.0359 47.25H49.5834C51.8385 47.25 53.6667 45.4219 53.6667 43.1667V13.4167L21.8995 36.8854L30.0359 47.25Z" fill="#E0E0E0"/>
<path d="M49.5834 11.0833H6.41671C4.16154 11.0833 2.33337 10.5782 2.33337 12.8333V43.1667C2.33337 45.4218 4.16154 47.25 6.41671 47.25H8.16671V14H47.8334V47.25H49.5834C51.8385 47.25 53.6667 45.4218 53.6667 43.1667V12.8333C53.6667 10.5782 51.8385 11.0833 49.5834 11.0833Z" fill="#CA3737"/>
<path d="M49.5834 8.75H28H6.41671C4.16154 8.75 2.33337 10.542 2.33337 12.8333C2.33337 14.2403 4.10437 15.4677 4.10437 15.4677L28 32.382L51.8957 15.4688C51.8957 15.4688 53.6667 14.2403 53.6667 12.8345C53.6667 10.542 51.8385 8.75 49.5834 8.75Z" fill="#F5F5F5"/>
<path d="M50.4537 8.84564L28 24.5L5.54637 8.84564C3.71004 9.23881 2.33337 10.8465 2.33337 12.8333C2.33337 14.2403 4.10437 15.4676 4.10437 15.4676L28 32.382L51.8957 15.4688C51.8957 15.4688 53.6667 14.2403 53.6667 12.8345C53.6667 10.8465 52.29 9.23881 50.4537 8.84564Z" fill="#E84F4B"/>
</svg>
