<svg width="72" height="72" viewBox="0 0 72 72" fill="none" xmlns="http://www.w3.org/2000/svg">
<path d="M66 36C66 52.5675 52.5675 66 36 66C19.4325 66 6 52.5675 6 36C6 19.4325 19.4325 6 36 6C52.5675 6 66 19.4325 66 36Z" fill="#378AD7"/>
<path opacity="0.05" d="M15.1785 35.1991C27.411 29.6566 41.778 23.6431 43.9905 22.7731C48.8685 20.8546 50.9955 22.8151 50.6625 25.9426C50.253 29.7751 48.312 40.9276 47.118 48.9181C46.419 53.5936 43.887 55.0261 41.0295 53.2126C38.862 51.8371 31.41 46.9576 29.4495 45.2896C28.113 44.1526 27.1815 42.8776 28.1295 41.5786C28.407 41.1991 29.1165 40.4341 29.511 40.0531C31.4895 38.1361 31.2225 37.7236 28.83 39.4351C28.545 39.6391 26.892 40.8376 26.2125 41.2906C24.5475 42.4006 23.016 42.4606 20.4195 41.5786C18.2955 40.8571 16.2555 40.3006 14.9685 39.7441C13.191 38.9746 12.51 36.4081 15.1785 35.1991Z" fill="black"/>
<path opacity="0.07" d="M16.254 35.3865C27.612 30.309 41.58 24.4905 43.623 23.667C48.519 21.69 50.3205 22.863 49.794 26.6835C49.305 30.2205 47.5695 41.1645 46.353 48.501C45.636 52.8195 43.542 53.7705 40.815 52.0065C39.1065 50.9055 32.2305 46.3755 30.5625 45.057C29.2725 44.0385 27.936 42.8625 29.4975 41.16C30.0195 40.5915 32.9025 37.809 35.058 35.739C36.3075 34.5375 35.862 33.945 34.3545 34.977C31.59 36.8715 27.0675 39.87 26.2605 40.4145C24.723 41.4495 23.2785 41.6985 20.7645 40.908C18.783 40.284 16.869 39.6795 15.8715 39.291C13.6425 38.427 13.6125 36.567 16.254 35.3865Z" fill="black"/>
<path d="M17.3295 35.5755C27.8145 30.963 41.382 25.3395 43.2555 24.561C48.168 22.524 49.6755 22.914 48.924 27.426C48.384 30.669 46.827 41.4045 45.585 48.087C44.8485 52.05 43.1955 52.5195 40.5975 50.805C39.348 49.98 33.0405 45.8085 31.671 44.829C30.4215 43.9365 28.698 42.8625 30.8595 40.7475C31.629 39.9945 36.6705 35.1795 40.599 31.4325C41.1135 30.9405 40.467 30.132 39.873 30.5265C34.578 34.038 27.237 38.9115 26.3025 39.546C24.891 40.5045 23.535 40.944 21.102 40.245C19.263 39.717 17.4675 39.087 16.7685 38.847C14.076 37.923 14.715 36.726 17.3295 35.5755Z" fill="white"/>
</svg>
