<svg width="72" height="72" viewBox="0 0 72 72" fill="none" xmlns="http://www.w3.org/2000/svg">
<path d="M36 7.5C32.0415 7.5 19.995 7.5 13.335 13.581C9.369 17.532 7.5 23.241 7.5 31.5V36C7.5 44.259 9.369 49.968 13.3815 53.964C15.3795 55.7865 18.1035 57.243 21.4335 58.2495L22.5 58.5705V66.5625C22.5 67.5 22.7715 67.5 22.8615 67.5C23.046 67.5 23.3415 67.4415 23.9025 66.9435C24.0375 66.81 25.0275 65.739 29.8425 60.345L30.3285 59.8005L31.056 59.847C32.6685 59.9475 34.332 60 36 60C39.9585 60 52.005 60 58.665 53.9175C62.6295 49.9665 64.5 44.2575 64.5 36V31.5C64.5 23.241 62.631 17.532 58.6185 13.536C52.005 7.5 39.9585 7.5 36 7.5Z" fill="white"/>
<path d="M50.1765 43.281C48.51 41.877 47.7405 41.4525 45.4395 40.071C44.481 39.4965 43.02 39 42.2535 39C41.73 39 41.103 39.4005 40.719 39.7845C39.735 40.7685 39.4125 42 37.6875 42C36 42 33.0525 40.2825 30.9375 38.0625C28.7175 35.9475 27 33 27 31.3125C27 29.5875 28.209 29.2425 29.193 28.257C29.577 27.8745 30 27.2475 30 26.724C30 25.9575 29.5035 24.519 28.929 23.5605C27.5475 21.258 27.1245 20.4885 25.719 18.8235C25.2435 18.2595 24.702 18.0015 24.135 18C23.1765 17.9985 21.918 18.474 21.066 19.1085C19.785 20.064 18.4455 21.3645 18.087 22.9845C18.039 23.205 18.0105 23.427 18.0015 23.649C17.9325 25.3365 18.5955 27.0495 19.311 28.5C20.9955 31.9185 23.2245 35.2275 25.65 38.1825C26.4255 39.1275 27.27 40.0065 28.1445 40.8555C28.9935 41.7285 29.8725 42.573 30.8175 43.35C33.7725 45.7755 37.0815 48.0045 40.5 49.689C41.937 50.397 43.629 51.048 45.3 51C45.5385 50.9925 45.777 50.9655 46.0155 50.913C47.6355 50.556 48.936 49.215 49.8915 47.934C50.526 47.082 51.0015 45.825 51 44.865C50.9985 44.298 50.7405 43.7565 50.1765 43.281ZM51 36C50.172 36 49.5 35.328 49.5 34.5V33C49.5 25.557 43.443 19.5 36 19.5C35.172 19.5 34.5 18.828 34.5 18C34.5 17.172 35.172 16.5 36 16.5C45.0975 16.5 52.5 23.9025 52.5 33V34.5C52.5 35.328 51.828 36 51 36ZM41.787 33C41.121 33 40.512 32.553 40.3365 31.878C39.9255 30.3015 38.6955 29.07 37.125 28.665C36.3225 28.4565 35.841 27.639 36.048 26.8365C36.255 26.0355 37.071 25.554 37.8765 25.7595C40.4985 26.439 42.5535 28.4925 43.239 31.1205C43.4475 31.923 42.9675 32.7405 42.1665 32.9505C42.039 32.9835 41.9115 33 41.787 33Z" fill="#7351CF"/>
<path d="M46.5 34.4999C45.672 34.4999 45 33.8279 45 32.9999C45 28.2179 41.259 24.2729 36.483 24.0209C35.655 23.9774 35.0205 23.2709 35.064 22.4444C35.1075 21.6164 35.826 20.9804 36.6405 21.0254C43.011 21.3614 48 26.6219 48 32.9999C48 33.8279 47.328 34.4999 46.5 34.4999Z" fill="#7351CF"/>
<path d="M36 6C29.25 6 18.732 6.621 12.324 12.474C7.79402 16.9845 6.00002 23.3115 6.00002 31.5C6.00002 32.178 5.99702 32.934 6.00302 33.75C5.99702 34.5645 6.00002 35.3205 6.00002 35.9985C6.00002 44.187 7.79402 50.514 12.324 55.0245C14.763 57.252 17.805 58.7175 21 59.6835V66.5625C21 68.9565 22.5735 69 22.8615 69H22.875C23.616 68.997 24.2565 68.634 24.8985 68.064C25.14 67.8495 27.9285 64.7415 30.9615 61.3425C32.7675 61.458 34.4835 61.5 35.9985 61.5C42.7485 61.5 53.265 60.8775 59.6745 55.0245C64.203 50.5155 65.9985 44.187 65.9985 35.9985C65.9985 35.3205 66.0015 34.5645 65.9955 33.7485C66.0015 32.9325 65.9985 32.178 65.9985 31.4985C65.9985 23.31 64.2045 16.983 59.6745 12.4725C53.2665 6.621 42.75 6 36 6ZM61.5 35.4765V35.9985C61.5 43.3575 59.9325 48.372 56.571 51.7665C50.748 57 39.6555 57 35.9985 57C34.8855 57 33.0795 56.9985 30.948 56.85C30.3555 57.516 24 64.6245 24 64.6245V55.83C20.844 55.0725 17.7255 53.8305 15.429 51.768C12.0675 48.372 10.5 43.3575 10.5 35.9985V35.4765C10.5 34.95 10.4985 34.3815 10.503 33.717C10.4985 33.117 10.4985 32.55 10.5 32.022V31.5C10.5 24.141 12.0675 19.1265 15.429 15.732C21.2505 10.4985 32.3445 10.4985 36 10.4985C39.6555 10.4985 50.748 10.4985 56.5695 15.732C59.9325 19.1265 61.4985 24.141 61.4985 31.5V32.022C61.4985 32.5485 61.5 33.117 61.4955 33.7815C61.5 34.383 61.5 34.95 61.5 35.4765Z" fill="#7351CF"/>
</svg>
